<?xml version="1.0" standalone="no"?>
<!DOCTYPE svg PUBLIC "-//W3C//DTD SVG 20010904//EN"
 "http://www.w3.org/TR/2001/REC-SVG-20010904/DTD/svg10.dtd">
<svg version="1.0" xmlns="http://www.w3.org/2000/svg"
 width="260.000000pt" height="260.000000pt" viewBox="0 0 260.000000 260.000000"
 preserveAspectRatio="xMidYMid meet">
<metadata>
Created by potrace 1.11, written by Peter Selinger 2001-2013
</metadata>
<g transform="translate(0.000000,260.000000) scale(0.100000,-0.100000)"
fill="#000000" stroke="none">
<path d="M1288 2585 c-3 -3 -36 -8 -74 -10 -38 -3 -82 -7 -99 -10 -16 -2 -44
-7 -61 -9 -17 -3 -42 -10 -56 -15 -14 -5 -29 -7 -32 -4 -3 4 -6 1 -6 -6 0 -7
-4 -10 -10 -6 -5 3 -25 -1 -44 -9 -19 -8 -37 -12 -40 -9 -3 3 -8 -2 -12 -11
-3 -9 -10 -14 -14 -11 -4 3 -30 -5 -56 -17 -27 -12 -52 -21 -56 -20 -5 1 -8
-3 -8 -9 0 -6 -7 -8 -16 -5 -8 3 -13 2 -10 -2 3 -5 -12 -17 -32 -28 -20 -10
-46 -27 -57 -37 -10 -10 -25 -15 -33 -12 -7 2 -11 1 -9 -3 3 -4 -1 -13 -9 -20
-8 -7 -14 -10 -14 -6 0 4 -11 -5 -25 -20 -14 -15 -25 -24 -25 -20 0 3 -26 -20
-57 -52 -32 -32 -57 -62 -56 -66 2 -5 0 -7 -5 -6 -10 4 -72 -59 -65 -66 3 -3
-2 -8 -11 -12 -9 -3 -13 -10 -10 -15 3 -5 -2 -12 -10 -15 -9 -3 -16 -12 -16
-20 0 -8 -4 -14 -10 -14 -5 0 -12 -11 -16 -25 -3 -14 -10 -25 -15 -25 -5 0 -9
-7 -9 -15 0 -8 -4 -15 -9 -15 -5 0 -12 -11 -15 -25 -4 -14 -11 -25 -17 -25 -6
0 -8 -4 -4 -9 3 -5 1 -12 -5 -16 -6 -4 -8 -11 -5 -16 4 -5 1 -9 -5 -9 -6 0 -8
-4 -5 -10 3 -5 1 -10 -4 -10 -6 0 -11 -9 -11 -19 0 -11 -7 -26 -15 -34 -8 -8
-12 -17 -9 -20 4 -3 2 -12 -2 -19 -5 -7 -10 -19 -11 -25 -6 -24 -11 -48 -13
-53 -1 -3 -2 -8 -1 -12 0 -5 -2 -8 -7 -8 -6 0 -10 -19 -12 -72 -1 -10 -4 -18
-8 -18 -4 0 -8 -17 -9 -38 -1 -20 -4 -46 -6 -57 -3 -11 1 -26 7 -34 9 -12 8
-13 -3 -7 -11 7 -12 -15 -8 -125 3 -74 9 -150 12 -169 3 -19 7 -45 8 -57 0
-13 4 -23 7 -23 3 0 7 -10 8 -22 3 -36 7 -52 14 -63 5 -9 18 -57 24 -95 2 -8
8 -16 13 -18 6 -2 11 -10 11 -18 0 -17 61 -137 73 -142 4 -2 5 -8 1 -13 -3 -5
0 -9 6 -9 6 0 8 -4 5 -10 -3 -5 -2 -10 2 -10 5 0 19 -18 33 -40 14 -22 29 -40
34 -40 5 0 6 -3 3 -6 -4 -4 3 -15 14 -25 11 -9 21 -21 22 -26 1 -4 5 -7 9 -6
4 2 10 -6 13 -17 4 -11 11 -20 16 -20 5 0 9 -7 9 -17 0 -9 3 -13 7 -10 3 4 15
-5 25 -20 10 -16 18 -24 18 -19 0 4 13 -6 29 -23 15 -16 31 -27 35 -24 3 3 6
-1 6 -10 0 -10 4 -17 9 -17 4 0 28 -16 53 -35 25 -19 48 -31 52 -28 3 4 6 -1
6 -11 0 -13 5 -16 20 -11 14 4 20 2 18 -7 -2 -7 3 -12 10 -10 6 1 12 -2 12 -8
0 -5 7 -10 15 -10 8 0 15 -5 15 -11 0 -6 7 -9 15 -5 8 3 15 1 15 -5 0 -6 5 -7
10 -4 5 3 10 0 10 -8 0 -11 7 -13 22 -9 14 3 19 2 14 -6 -5 -8 2 -12 18 -12
14 0 26 -4 26 -8 0 -5 7 -9 15 -10 8 -1 22 -3 30 -4 8 -1 15 -5 15 -10 0 -4 9
-8 20 -8 11 0 20 -6 20 -12 0 -9 3 -9 8 -3 5 7 17 7 40 0 18 -6 30 -14 26 -17
-3 -4 3 -4 15 -1 12 3 28 0 36 -7 11 -9 15 -9 15 -1 0 8 5 9 19 2 10 -6 21 -8
24 -4 4 3 13 0 22 -7 12 -10 15 -10 15 1 0 9 3 10 8 4 4 -6 21 -11 37 -12 69
-3 151 -4 160 -3 6 1 26 2 45 2 19 0 43 5 54 10 14 7 16 7 11 -2 -5 -9 -3 -9
11 -2 11 5 27 8 37 7 9 -2 17 0 17 4 0 4 10 7 23 6 12 -1 27 1 32 5 6 4 18 8
28 9 40 3 47 5 47 13 0 4 3 7 8 6 12 -4 102 24 98 31 -2 3 7 7 21 8 14 0 29 6
33 13 6 9 9 9 13 -1 4 -9 6 -7 6 5 1 11 4 17 7 13 7 -7 131 58 152 80 7 7 20
13 27 13 8 0 19 9 25 20 6 11 14 19 18 17 8 -2 22 9 77 61 20 17 41 32 47 32
6 0 9 3 6 6 -3 3 16 27 42 54 27 26 46 51 43 54 -4 3 -2 6 4 6 6 0 30 28 54
63 24 34 49 68 56 75 7 8 11 17 8 22 -3 5 -1 11 4 15 18 10 118 235 105 235
-4 0 -2 6 4 13 6 7 13 24 16 37 3 14 8 36 11 50 7 27 12 54 20 98 3 15 7 60 9
100 2 41 7 76 10 79 3 4 1 12 -5 20 -9 10 -8 13 0 13 7 0 9 5 5 11 -4 7 -8 42
-10 78 -4 77 -7 98 -17 107 -4 4 -2 13 4 21 6 7 7 13 2 13 -5 0 -10 6 -11 13
-3 25 -10 62 -12 65 -2 1 -4 7 -5 12 -1 6 -4 13 -5 18 -1 4 -3 12 -4 17 -1 6
-8 23 -14 38 -7 16 -10 33 -6 38 3 5 -1 12 -10 15 -9 3 -12 12 -9 21 4 10 2
14 -4 10 -6 -4 -10 1 -9 11 0 10 -5 16 -13 14 -12 -3 -12 0 -1 12 9 12 9 16 1
16 -7 0 -10 4 -7 9 3 5 -1 12 -10 15 -9 4 -14 13 -10 21 3 8 1 15 -5 15 -6 0
-8 7 -5 16 3 9 2 12 -5 9 -6 -4 -13 2 -16 14 -3 12 -10 21 -15 21 -6 0 -8 6
-5 13 5 14 -17 39 -27 30 -5 -6 -10 20 -7 39 0 4 -8 10 -19 13 -11 4 -20 12
-20 19 0 15 -72 92 -82 89 -5 -2 -8 4 -8 13 0 8 -7 22 -15 30 -8 9 -15 12 -15
8 0 -4 -16 9 -35 30 -19 21 -35 36 -35 32 0 -3 -8 2 -18 12 -35 32 -62 52 -72
52 -6 0 -10 5 -10 10 0 6 -7 10 -15 10 -8 0 -15 3 -15 8 0 12 -244 132 -269
132 -6 0 -28 7 -49 16 -35 16 -50 19 -117 27 -17 2 -39 7 -50 10 -11 3 -51 9
-89 12 -37 3 -72 7 -76 10 -5 3 -12 1 -15 -5 -5 -8 -11 -8 -19 -1 -7 6 -15 8
-18 6z"/>
</g>
</svg>
